<svg width="13" height="13" viewBox="0 0 13 13" fill="none" xmlns="http://www.w3.org/2000/svg">
<g clip-path="url(#clip0_3_8104)">
<path d="M6.49988 0.000488281C2.91605 0.000488281 0 2.91508 0 6.49983C0 10.0832 2.91605 12.9992 6.49988 12.9992C10.0841 12.9992 13 10.0832 13 6.49983C13 2.91508 10.0841 0.000488281 6.49988 0.000488281ZM6.49988 11.5512C3.71416 11.5512 1.44806 9.2852 1.44806 6.49987C1.44806 3.71334 3.71416 1.44739 6.49988 1.44739C9.28591 1.44739 11.552 3.71337 11.552 6.49987C11.552 9.2852 9.28588 11.5512 6.49988 11.5512Z" fill="#5C6574"/>
<path d="M8.63334 7.67694C8.21812 8.38947 7.44601 8.83148 6.61839 8.83148C5.33317 8.83148 4.28629 7.78484 4.28629 6.49958C4.28629 5.21326 5.33317 4.16627 6.61839 4.16627C7.44605 4.16627 8.21812 4.6099 8.63334 5.32102L8.68701 5.41396H10.2535L10.1595 5.16175C9.8869 4.43959 9.4086 3.82559 8.77546 3.38733C8.14072 2.94795 7.39514 2.71484 6.61839 2.71484C4.5318 2.71484 2.83493 4.41317 2.83493 6.49958C2.83493 8.58613 4.5318 10.2829 6.61839 10.2829C7.39514 10.2829 8.14068 10.0505 8.77546 9.61049C9.4086 9.17213 9.8869 8.55833 10.1595 7.83617L10.2535 7.58383H8.68701L8.63334 7.67694Z" fill="#5C6574"/>
</g>
<defs>
<clipPath id="clip0_3_8104">
<rect width="13" height="13" fill="white"/>
</clipPath>
</defs>
</svg>
